<?xml version="1.0" encoding="UTF-8" standalone="no"?>
<!-- Generator: Adobe Illustrator 25.0.1, SVG Export Plug-In . SVG Version: 6.00 Build 0)  -->

<svg
   version="1.0"
   id="katman_1"
   x="0px"
   y="0px"
   viewBox="0 0 700 579"
   xml:space="preserve"
   sodipodi:docname="maven.svg"
   width="700"
   height="579"
   inkscape:version="1.2.1 (9c6d41e4, 2022-07-14)"
   xmlns:inkscape="http://www.inkscape.org/namespaces/inkscape"
   xmlns:sodipodi="http://sodipodi.sourceforge.net/DTD/sodipodi-0.dtd"
   xmlns="http://www.w3.org/2000/svg"
   xmlns:svg="http://www.w3.org/2000/svg"><defs
   id="defs85" /><sodipodi:namedview
   id="namedview83"
   pagecolor="#ffffff"
   bordercolor="#000000"
   borderopacity="0.25"
   inkscape:showpageshadow="2"
   inkscape:pageopacity="0.0"
   inkscape:pagecheckerboard="0"
   inkscape:deskcolor="#d1d1d1"
   showgrid="false"
   inkscape:zoom="1.5575"
   inkscape:cx="370.46549"
   inkscape:cy="314.92777"
   inkscape:window-width="2059"
   inkscape:window-height="1205"
   inkscape:window-x="1803"
   inkscape:window-y="538"
   inkscape:window-maximized="0"
   inkscape:current-layer="katman_1" />
<path
   d="M 171.9,235.7 H 64.3 v 2.9 h 107.6 z"
   id="path48" />
<path
   d="M 106.1,241.4 H 67.3 v 2.9 h 38.8 z"
   id="path50" />
<path
   d="m 168.9,241.4 h -38.8 v 2.9 h 38.8 z"
   id="path52" />
<path
   d="m 64.3,343.3 h 107.6 v -2.9 H 64.3 Z"
   id="path54" />
<path
   d="m 67.3,337.5 h 5.8 v -2.9 h -5.8 z"
   id="path56" />
<path
   d="m 98.7,250 h 1.4 v -2.9 h -30 v 2.9 h 1.4 c 0.4,0 0.9,0.2 1.2,0.5 0.3,0.3 0.5,0.7 0.5,1.2 v 87 c 0,0.2 0,0.4 -0.1,0.6 -0.1,0.2 -0.2,0.4 -0.4,0.5 -0.2,0.2 -0.3,0.3 -0.5,0.4 -0.2,0.1 -0.4,0.1 -0.6,0.1 h -1.4 v 2.9 h 30 v -2.9 h -1.3 c -0.2,0 -0.4,0 -0.6,-0.1 -0.2,-0.1 -0.4,-0.2 -0.5,-0.4 -0.1,-0.2 -0.3,-0.3 -0.4,-0.5 -0.1,-0.2 -0.1,-0.4 -0.1,-0.6 v -87 c 0,-0.2 0,-0.4 0.1,-0.6 0.1,-0.2 0.2,-0.4 0.4,-0.5 0.2,-0.2 0.3,-0.3 0.5,-0.4 0,-0.1 0.2,-0.2 0.4,-0.2 z m -19,88.7 c 0,0.2 0,0.4 -0.1,0.6 -0.1,0.2 -0.2,0.4 -0.4,0.5 -0.2,0.2 -0.3,0.3 -0.5,0.4 -0.2,0.1 -0.4,0.1 -0.6,0.1 h -0.2 c -0.4,0 -0.9,-0.2 -1.2,-0.5 -0.3,-0.3 -0.5,-0.7 -0.5,-1.2 v -87 c 0,-0.4 0.2,-0.9 0.5,-1.2 0.3,-0.3 0.7,-0.5 1.2,-0.5 h 0.2 c 0.2,0 0.4,0 0.6,0.1 0.2,0.1 0.4,0.2 0.5,0.4 0.2,0.2 0.3,0.3 0.4,0.5 0.1,0.2 0.1,0.4 0.1,0.6 z m 7.2,0 c 0,0.2 0,0.4 -0.1,0.6 -0.1,0.2 -0.2,0.4 -0.4,0.5 -0.2,0.2 -0.3,0.3 -0.5,0.4 -0.2,0.1 -0.4,0.1 -0.6,0.1 h -0.2 c -0.2,0 -0.4,0 -0.6,-0.1 -0.2,-0.1 -0.4,-0.2 -0.5,-0.4 -0.2,-0.2 -0.3,-0.3 -0.4,-0.5 -0.1,-0.2 -0.1,-0.4 -0.1,-0.6 v -87 c 0,-0.4 0.2,-0.9 0.5,-1.2 0.3,-0.3 0.7,-0.5 1.2,-0.5 h 0.2 c 0.2,0 0.4,0 0.6,0.1 0.2,0.1 0.4,0.2 0.5,0.4 0.2,0.2 0.3,0.3 0.4,0.5 0.1,0.2 0.1,0.4 0.1,0.6 z m 7.2,0 c 0,0.2 0,0.4 -0.1,0.6 -0.1,0.2 -0.2,0.4 -0.4,0.5 -0.2,0.2 -0.3,0.3 -0.5,0.4 -0.2,0.1 -0.4,0.1 -0.6,0.1 h -0.2 c -0.2,0 -0.4,0 -0.6,-0.1 -0.2,-0.1 -0.4,-0.2 -0.5,-0.4 -0.2,-0.2 -0.3,-0.3 -0.4,-0.5 -0.1,-0.2 -0.1,-0.4 -0.1,-0.6 v -87 c 0,-0.2 0,-0.4 0.1,-0.6 0.1,-0.2 0.2,-0.4 0.4,-0.5 0.2,-0.2 0.3,-0.3 0.5,-0.4 0.2,-0.1 0.4,-0.1 0.6,-0.1 h 0.2 c 0.4,0 0.9,0.2 1.2,0.5 0.3,0.3 0.5,0.7 0.5,1.2 v 86.9 z"
   id="path58" />
<path
   d="m 131.7,238.6 h 1.4 v -2.9 h -30 v 2.9 h 1.4 c 0.2,0 0.4,0 0.6,0.1 0.2,0.1 0.4,0.2 0.5,0.4 0.2,0.2 0.3,0.3 0.4,0.5 0.1,0.2 0.1,0.4 0.1,0.6 v 87 c 0,0.2 0,0.4 -0.1,0.6 -0.1,0.2 -0.2,0.4 -0.4,0.5 -0.2,0.2 -0.3,0.3 -0.5,0.4 -0.2,0.1 -0.4,0.1 -0.6,0.1 h -1.4 v 2.9 h 30 v -2.9 h -1.4 c -0.2,0 -0.4,0 -0.6,-0.1 -0.2,-0.1 -0.4,-0.2 -0.5,-0.4 -0.2,-0.2 -0.3,-0.3 -0.4,-0.5 -0.1,-0.2 -0.1,-0.4 -0.1,-0.6 v -87 c 0,-0.2 0,-0.4 0.1,-0.6 0.1,-0.2 0.2,-0.4 0.4,-0.5 0.2,-0.2 0.3,-0.3 0.5,-0.4 0.2,-0.1 0.4,-0.1 0.6,-0.1 z m -19,88.7 c 0,0.2 0,0.4 -0.1,0.6 -0.1,0.2 -0.2,0.4 -0.4,0.5 -0.2,0.2 -0.3,0.3 -0.5,0.4 -0.2,0.1 -0.4,0.1 -0.6,0.1 h -0.2 c -0.2,0 -0.4,0 -0.6,-0.1 -0.2,-0.1 -0.4,-0.2 -0.5,-0.4 -0.2,-0.2 -0.3,-0.3 -0.4,-0.5 -0.1,-0.2 -0.1,-0.4 -0.1,-0.6 v -87 c 0,-0.2 0,-0.4 0.1,-0.6 0.1,-0.2 0.2,-0.4 0.4,-0.5 0.2,-0.2 0.3,-0.3 0.5,-0.4 0.2,-0.1 0.4,-0.1 0.6,-0.1 h 0.2 c 0.2,0 0.4,0 0.6,0.1 0.2,0.1 0.4,0.2 0.5,0.4 0.2,0.2 0.3,0.3 0.4,0.5 0.1,0.2 0.1,0.4 0.1,0.6 z m 7.2,0 c 0,0.2 0,0.4 -0.1,0.6 -0.1,0.2 -0.2,0.4 -0.4,0.5 -0.2,0.2 -0.3,0.3 -0.5,0.4 -0.2,0.1 -0.4,0.1 -0.6,0.1 h -0.2 c -0.2,0 -0.4,0 -0.6,-0.1 -0.2,-0.1 -0.4,-0.2 -0.5,-0.4 -0.2,-0.2 -0.3,-0.3 -0.4,-0.5 -0.1,-0.2 -0.1,-0.4 -0.1,-0.6 v -87 c 0,-0.2 0,-0.4 0.1,-0.6 0.1,-0.2 0.2,-0.4 0.4,-0.5 0.2,-0.2 0.3,-0.3 0.5,-0.4 0.2,-0.1 0.4,-0.1 0.6,-0.1 h 0.2 c 0.2,0 0.4,0 0.6,0.1 0.2,0.1 0.4,0.2 0.5,0.4 0.2,0.2 0.3,0.3 0.4,0.5 0.1,0.2 0.1,0.4 0.1,0.6 z m 7.2,0 c 0,0.2 0,0.4 -0.1,0.6 -0.1,0.2 -0.2,0.4 -0.4,0.5 -0.2,0.2 -0.3,0.3 -0.5,0.4 -0.2,0.1 -0.4,0.1 -0.6,0.1 h -0.2 c -0.2,0 -0.4,0 -0.6,-0.1 -0.2,-0.1 -0.4,-0.2 -0.5,-0.4 -0.2,-0.2 -0.3,-0.3 -0.4,-0.5 -0.1,-0.2 -0.1,-0.4 -0.1,-0.6 v -87 c 0,-0.2 0,-0.4 0.1,-0.6 0.1,-0.2 0.2,-0.4 0.4,-0.5 0.2,-0.2 0.3,-0.3 0.5,-0.4 0.2,-0.1 0.4,-0.1 0.6,-0.1 h 0.2 c 0.2,0 0.4,0 0.6,0.1 0.2,0.1 0.4,0.2 0.5,0.4 0.2,0.2 0.3,0.3 0.4,0.5 0.1,0.2 0.1,0.4 0.1,0.6 z"
   id="path60" />
<path
   d="m 164.7,250 h 1.4 v -2.9 h -30 v 2.9 h 1.3 c 0.2,0 0.4,0 0.6,0.1 0.2,0.1 0.4,0.2 0.5,0.4 0.2,0.2 0.3,0.3 0.4,0.5 0.1,0.2 0.1,0.4 0.1,0.6 v 87 c 0,0.2 0,0.4 -0.1,0.6 -0.1,0.2 -0.2,0.4 -0.4,0.5 -0.2,0.2 -0.3,0.3 -0.5,0.4 -0.2,0.1 -0.4,0.1 -0.6,0.1 h -1.3 v 2.9 h 30 v -2.9 h -1.4 c -0.2,0 -0.4,0 -0.6,-0.1 -0.2,-0.1 -0.4,-0.2 -0.5,-0.4 -0.2,-0.2 -0.3,-0.3 -0.4,-0.5 -0.1,-0.2 -0.1,-0.4 -0.1,-0.6 v -87 c 0,-0.2 0,-0.4 0.1,-0.6 0.1,-0.2 0.2,-0.4 0.4,-0.5 0.2,-0.2 0.3,-0.3 0.5,-0.4 0.2,0 0.4,-0.1 0.6,-0.1 z m -19,88.7 c 0,0.2 0,0.4 -0.1,0.6 -0.1,0.2 -0.2,0.4 -0.4,0.5 -0.2,0.2 -0.3,0.3 -0.5,0.4 -0.2,0.1 -0.4,0.1 -0.6,0.1 h -0.2 c -0.4,0 -0.9,-0.2 -1.2,-0.5 -0.3,-0.3 -0.5,-0.7 -0.5,-1.2 v -87 c 0,-0.4 0.2,-0.9 0.5,-1.2 0.3,-0.3 0.7,-0.5 1.2,-0.5 h 0.2 c 0.2,0 0.4,0 0.6,0.1 0.2,0.1 0.4,0.2 0.5,0.4 0.2,0.2 0.3,0.3 0.4,0.5 0.1,0.2 0.1,0.4 0.1,0.6 z m 7.2,0 c 0,0.2 0,0.4 -0.1,0.6 -0.1,0.2 -0.2,0.4 -0.4,0.5 -0.2,0.2 -0.3,0.3 -0.5,0.4 -0.2,0.1 -0.4,0.1 -0.6,0.1 h -0.2 c -0.2,0 -0.4,0 -0.6,-0.1 -0.2,-0.1 -0.4,-0.2 -0.5,-0.4 -0.2,-0.2 -0.3,-0.3 -0.4,-0.5 -0.1,-0.2 -0.1,-0.4 -0.1,-0.6 v -87 c 0,-0.2 0,-0.4 0.1,-0.6 0.1,-0.2 0.2,-0.4 0.4,-0.5 0.2,-0.2 0.3,-0.3 0.5,-0.4 0.2,-0.1 0.4,-0.1 0.6,-0.1 h 0.2 c 0.4,0 0.9,0.2 1.2,0.5 0.3,0.3 0.5,0.7 0.5,1.2 z m 7.2,0 c 0,0.2 0,0.4 -0.1,0.6 -0.1,0.2 -0.2,0.4 -0.4,0.5 -0.2,0.2 -0.3,0.3 -0.5,0.4 -0.2,0.1 -0.4,0.1 -0.6,0.1 h -0.2 c -0.2,0 -0.4,0 -0.6,-0.1 -0.2,-0.1 -0.4,-0.2 -0.5,-0.4 -0.2,-0.2 -0.3,-0.3 -0.4,-0.5 -0.1,-0.2 -0.1,-0.4 -0.1,-0.6 v -87 c 0,-0.2 0,-0.4 0.1,-0.6 0.1,-0.2 0.2,-0.4 0.4,-0.5 0.2,-0.2 0.3,-0.3 0.5,-0.4 0.2,-0.1 0.4,-0.1 0.6,-0.1 h 0.2 c 0.4,0 0.9,0.2 1.2,0.5 0.3,0.3 0.5,0.7 0.5,1.2 z"
   id="path62" />
<path
   d="m 163.1,337.5 h 5.8 v -2.9 h -5.8 z"
   id="path64" />
<path
   d="m 95.6,337.5 h 44.9 v -2.9 H 95.6 Z"
   id="path66" />
<path
   d="m 207.7,257.6 v 68.2 h 24 v -75.2 z"
   id="path68" />
<path
   d="m 278.9,268.6 c -0.1,-1 -0.3,-2 -0.5,-3 -0.6,-3.4 -2.2,-6.5 -4.6,-9 -3.5,-3.5 -8,-5.2 -13.6,-5.2 -4.6,0.1 -9.1,1.3 -13.2,3.4 -4.6,2.2 -9.7,5.8 -15.3,11.1 l -0.8,0.8 -3,2.7 1.8,1.6 2,-1.8 0.8,-0.7 c 1.7,-1.7 3.8,-3.1 6,-4.1 2,-0.8 4.2,-1.3 6.3,-1.2 1.4,-0.1 2.9,0.2 4.2,0.8 1.3,0.6 2.5,1.4 3.5,2.5 1.9,2.2 2.9,5.2 2.9,9.2 v 50.6 h 23.7 v -53.4 c 0,-1.6 -0.1,-3 -0.2,-4.3 z m 44.3,4 c -0.8,-7.2 -2.9,-12.5 -6.3,-15.9 -1.7,-1.7 -3.8,-3.1 -6,-4 -2.3,-0.9 -4.7,-1.3 -7.1,-1.2 -4.5,0.1 -8.9,1.3 -12.7,3.6 -4.7,2.9 -9,6.4 -12.7,10.6 l -0.6,0.7 -2.7,3 1.8,1.6 2,-2.3 0.5,-0.6 c 1.5,-1.5 3.1,-2.7 5,-3.7 1.6,-0.8 3.3,-1.3 5.1,-1.3 1.3,-0.1 2.7,0.2 3.9,0.8 1.2,0.6 2.3,1.4 3.1,2.5 1.7,2.2 2.7,5.2 3.1,9.2 l 5.4,50.6 h 24.5 z"
   id="path70" />
<path
   d="m 397.6,257.3 c -4.8,-3.9 -12,-5.9 -21.5,-5.9 -7.4,0 -13.5,1 -18.5,3 -4.9,2 -8.7,4.5 -11.2,7.4 -2.5,3 -3.7,5.9 -3.7,8.9 0,3 0.8,5.2 2.5,6.7 1.8,1.6 4.2,2.4 6.6,2.3 3.3,0.1 6.6,-1 9,-3.2 1.1,-1 2,-2.2 2.6,-3.6 0.6,-1.4 0.9,-2.9 0.9,-4.4 v -7.4 c 0,-0.9 0.2,-1.9 0.5,-2.7 0.4,-0.9 0.9,-1.6 1.6,-2.3 0.8,-0.8 1.8,-1.3 2.9,-1.7 1.1,-0.4 2.2,-0.5 3.3,-0.4 1.1,-0.1 2.3,0.2 3.3,0.6 1,0.5 2,1.2 2.7,2.1 1.5,2.1 2.3,4.7 2.2,7.3 v 53.5 l 1.3,-0.8 v 1.1 c 0,0.3 0,0.7 0.1,1 0.1,1.2 0.5,2.4 1.1,3.4 0.6,1 1.4,1.9 2.4,2.7 2.4,1.9 6,2.8 11,2.8 2.8,0.1 5.6,-0.4 8.2,-1.3 v -52.5 c -0.1,-7.3 -2.5,-12.7 -7.3,-16.6 z m -16.8,59.4 c -2.3,2 -5.3,3.1 -8.3,3.1 -1.4,0 -2.8,-0.3 -4,-0.8 -1.2,-0.5 -2.4,-1.5 -3.2,-2.5 -1.9,-2.3 -2.8,-5.6 -2.8,-10.2 0,-4.7 1,-8.3 2.9,-10.8 1,-1.2 2.2,-2.2 3.6,-2.9 1.4,-0.7 3,-1 4.5,-0.9 1.8,0 3.7,0.2 5.4,0.6 0.6,0.2 1.2,0.3 1.8,0.6 1,0.4 2,0.8 3,1.3 l 1.1,-1.9 c -1.3,-0.7 -2.7,-1.3 -4.1,-1.8 l -1.5,-0.5 c -2.5,-0.7 -5.1,-1 -7.7,-0.9 -11.3,0 -19.6,1.9 -24.9,5.6 -2.5,1.6 -4.6,3.9 -6,6.5 -1.4,2.6 -2.1,5.6 -2,8.6 -0.1,2.5 0.5,4.9 1.5,7.1 1,2.2 2.6,4.2 4.5,5.7 4,3.3 9.2,5 15.6,5 4.8,0 9.6,-1 14,-3.1 3,-1.4 5.7,-3.3 7.9,-5.8 0.8,-0.9 1.6,-2 2.3,-3 l -1.3,-1.6 c -0.7,1 -1.4,1.8 -2.3,2.6 z"
   id="path72" />
<path
   d="m 474.6,253.3 -19.1,54.9 -20.3,-54.9 h -24.7 l 26.9,70.5 c 0.2,0.7 0.7,1.3 1.3,1.7 0.6,0.4 1.3,0.5 2,0.5 h 9.8 c 0.6,0 1.3,-0.1 1.9,-0.4 0.6,-0.4 1,-0.9 1.2,-1.6 l 25.1,-70.8 h -4.1 z"
   id="path74" />
<path
   d="m 629.5,271.4 c -0.8,-6.6 -2.6,-11.6 -5.6,-14.9 -2.9,-3.3 -7.1,-5 -12.5,-5 -3.6,0 -7.6,1.2 -11.9,3.6 -5.2,3.1 -10,6.7 -14.5,10.8 l -0.7,0.6 -3.1,2.7 1.7,1.7 2.1,-1.8 0.9,-0.7 c 1.7,-1.6 3.6,-2.9 5.6,-4 1.7,-0.9 3.6,-1.3 5.5,-1.3 1.2,-0.1 2.3,0.1 3.4,0.6 1.1,0.5 2,1.2 2.7,2.1 1.4,1.8 2.3,4.6 2.8,8.5 l 5.3,51.7 h 24.5 z"
   id="path76" />
<path
   d="m 561.1,257.7 v 68.2 h 24 v -75.2 z"
   id="path78" />
<path
   d="m 549.7,283.1 c 0.1,-5.7 -1.3,-11.3 -4,-16.3 -2.6,-4.7 -6.5,-8.6 -11.2,-11.3 -5.3,-2.9 -11.3,-4.3 -17.3,-4.1 -7,-0.2 -14,1.5 -20.1,4.9 -5.6,3.2 -10.2,8 -13.1,13.8 -3.2,6.5 -4.8,13.6 -4.6,20.8 -0.1,6.7 1.5,13.3 4.7,19.2 3,5.4 7.5,9.9 12.9,12.9 5.8,3.1 12.4,4.7 19,4.6 5.9,0.1 11.6,-1.2 16.9,-3.8 4.8,-2.4 8.9,-5.9 11.8,-10.3 2.9,-4.3 4.5,-9.4 4.7,-14.6 0,-0.1 0,-0.3 0,-0.4 h -2.5 c -0.3,2.2 -1,4.3 -2.2,6.2 -1.1,1.9 -2.7,3.5 -4.5,4.8 -4,2.8 -8.8,4.2 -13.7,4 -7.5,0 -13.6,-2.6 -18.3,-7.9 -3.8,-4.3 -6.1,-10.6 -6.7,-18.8 h 48.1 z m -23.8,0.8 h -24.5 c 0,-0.8 0,-1.6 0,-2.4 -0.1,-5.1 0.4,-10.2 1.7,-15.2 1.1,-3.9 2.6,-6.8 4.6,-8.6 0.9,-0.9 1.9,-1.6 3,-2.1 1.1,-0.5 2.4,-0.7 3.6,-0.7 3.2,0 6,2.2 8.3,6.5 2.3,4.3 3.4,11.1 3.4,20.5 z"
   id="path80" />
</svg>
